<svg width="24" height="24" viewBox="0 0 24 24" fill="none" xmlns="http://www.w3.org/2000/svg">
<path d="M12 6.21699C11.367 6.21699 10.7436 6.29771 10.149 6.45917V5.11709V4.95563C10.149 4.92536 10.149 4.885 10.1394 4.85473C10.0243 3.20992 8.80627 1.99902 7.32928 1.99902C5.84271 1.99902 4.62468 3.20992 4.50959 4.85473C4.5 4.89509 4.5 10.4753 4.5 10.4753V14.108C4.5 14.1383 4.5 14.1585 4.5 14.1887C4.53836 18.5076 7.88555 22.0091 12 22.0091C16.1432 22.0091 19.5 18.4773 19.5 14.1181C19.5 9.74877 16.1432 6.21699 12 6.21699ZM12 20.7881C8.49936 20.7881 5.6509 17.7912 5.6509 14.108V5.01618C5.6509 4.03737 6.39898 3.24019 7.32928 3.24019C8.25 3.24019 9.00767 4.03737 9.00767 5.01618V14.0273C9.00767 15.773 10.3504 17.2664 12.0096 17.2664C13.6688 17.2664 15.0115 15.8537 15.0115 14.108C15.0115 12.3623 13.6688 10.9496 12.0096 10.9496C11.3095 10.9496 10.6765 11.2019 10.1586 11.6156V10.2533C10.7148 9.96068 11.3382 9.78914 12.0096 9.78914C14.273 9.78914 16.1049 11.7165 16.1049 14.0979C16.1049 16.4793 14.273 18.4067 12.0096 18.4067C9.74616 18.4067 7.91432 16.4793 7.91432 14.0979V4.95563C7.91432 4.663 7.65537 4.38046 7.33887 4.38046C7.02238 4.38046 6.76343 4.663 6.76343 4.95563V14.108C6.76343 14.2493 6.77302 14.3805 6.78261 14.5217C6.98402 17.3774 9.24744 19.6378 12.0192 19.6378C14.9156 19.6378 17.2653 17.1655 17.2653 14.1181C17.2653 11.0707 14.9156 8.59842 12.0192 8.59842C11.367 8.59842 10.7436 8.71951 10.1682 8.9516V7.71043C10.7532 7.5187 11.3766 7.41779 12.0192 7.41779C15.5294 7.41779 18.3683 10.4047 18.3683 14.0979C18.3491 17.7912 15.5102 20.7881 12 20.7881ZM10.149 14.108C10.149 13.0384 10.9738 12.1605 12 12.1605C13.0166 12.1605 13.851 13.0283 13.851 14.108C13.851 15.1776 13.0262 16.0555 12 16.0555C10.9834 16.0454 10.149 15.1776 10.149 14.108Z" fill="black"/>
</svg>
