<svg width="40" height="40" viewBox="0 0 40 40" fill="none" xmlns="http://www.w3.org/2000/svg">
<path d="M31.7248 0H8.27506C3.7204 0 0 3.7204 0 8.27506V31.7248C0 36.3021 3.7204 39.9999 8.27506 39.9999H31.7248C36.3021 39.9999 39.9999 36.2795 39.9999 31.7248V8.27506C40.0224 3.7204 36.3021 0 31.7248 0Z" fill="black"/>
<path d="M20 11.5896C19.0079 11.5896 18.0609 11.7023 17.159 11.9504V9.83087C17.159 7.46335 15.2424 5.52423 12.8523 5.52423C10.4848 5.52423 8.56824 7.46335 8.56824 9.83087V23.0439C8.56824 29.3573 13.6866 34.4982 20.0225 34.4982C26.3585 34.4982 31.4769 29.3799 31.4769 23.0439C31.4543 16.708 26.3359 11.5896 20 11.5896ZM20 32.762C14.6336 32.762 10.2593 28.4103 10.2593 23.0214V9.83087C10.2593 8.41036 11.4093 7.23787 12.8523 7.23787C14.2954 7.23787 15.4453 8.38781 15.4453 9.83087V23.0439C15.4453 25.5693 17.4972 27.5986 20 27.5986C22.5254 27.5986 24.5547 25.5467 24.5547 23.0439C24.5547 20.5411 22.5028 18.4892 20 18.4892C18.9177 18.4892 17.9256 18.8726 17.159 19.4814V17.452C18.0158 17.0236 18.9853 16.7756 20 16.7756C23.4724 16.7756 26.2909 19.5941 26.2909 23.0665C26.2909 26.5388 23.4724 29.3573 20 29.3573C16.5276 29.3573 13.7091 26.5388 13.7091 23.0665V9.83087C13.7091 9.35737 13.3258 8.97405 12.8523 8.97405C12.3788 8.97405 11.9955 9.35737 11.9955 9.83087V23.0439C11.9955 27.4633 15.5806 31.0484 20 31.0484C24.4194 31.0484 28.0045 27.4633 28.0045 23.0439C28.0045 18.6245 24.4194 15.0394 20 15.0394C19.0079 15.0394 18.0383 15.2198 17.159 15.558V13.7317C18.0609 13.4611 19.0079 13.3032 20 13.3032C25.3664 13.3032 29.7407 17.655 29.7407 23.0439C29.7407 28.4103 25.3889 32.762 20 32.762ZM17.159 23.0439C17.159 21.4656 18.4216 20.2029 20 20.2029C21.5784 20.2029 22.841 21.4656 22.841 23.0439C22.841 24.6223 21.5784 25.8849 20 25.8849C18.4442 25.8849 17.159 24.6223 17.159 23.0439Z" fill="white"/>
</svg>
